PathFileType	4	(X/Y/Z)	Patient4_TMGait_0pt6_01_right_07.trc.trc
DataRate	CameraRate	NumFrames	NumMarkers	Units	OrigDataRate	OrigDataStartFrame	OrigNumFrames
83.832335329341	83.832335329341	5	33	mm	83.832335329341	71	       141
Frame#	Time	Sacral			L.Shoulder			Chest			R.Shoulder			Neck			R.ASIS			L.ASIS			R.Thigh.Superior			R.Thigh.Lateral			R.Thigh.Inferior			R.Patella			L.Thigh.Superior			L.Thigh.Lateral			L.Thigh.Inferior			L.Patella			L.Shank.Superior			L.Shank.Lateral			L.Shank.Inferior			R.Shank.Superior			R.Shank.Lateral			R.Shank.Inferior			R.Heel			R.Midfoot.Superior			R.Midfoot.Lateral			R.Toe			L.Heel			L.Midfoot.Lateral			L.Midfoot.Superior			L.Toe			L.Elbow			L.Wrist			R.Elbow			R.Wrist			
		X1	Y1	Z1	X2	Y2	Z2	X3	Y3	Z3	X4	Y4	Z4	X5	Y5	Z5	X6	Y6	Z6	X7	Y7	Z7	X8	Y8	Z8	X9	Y9	Z9	X10	Y10	Z10	X11	Y11	Z11	X12	Y12	Z12	X13	Y13	Z13	X14	Y14	Z14	X15	Y15	Z15	X16	Y16	Z16	X17	Y17	Z17	X18	Y18	Z18	X19	Y19	Z19	X20	Y20	Z20	X21	Y21	Z21	X22	Y22	Z22	X23	Y23	Z23	X24	Y24	Z24	X25	Y25	Z25	X26	Y26	Z26	X27	Y27	Z27	X28	Y28	Z28	X29	Y29	Z29	X30	Y30	Z30	X31	Y31	Z31	X32	Y32	Z32	X33	Y33	Z33	

71	8.765000000000	646.167086184845	997.300794448458	512.336652550074	769.033544318723	1430.934944537984	318.583284513903	904.066330530262	1362.205024678468	454.195906926192	852.531592032014	1428.326168924422	641.794741446638	782.603787623906	1485.229662037039	472.539387206301	882.993804905823	930.278002679294	597.373248305834	836.029821814894	953.904030723498	325.611127197635	872.407246220096	716.211453254310	568.993358334313	768.043452117915	624.062752429753	634.168313225406	820.407752369803	558.693052839186	549.960363342182	797.744364615918	474.263840197508	553.377296072787	914.566800465885	767.246058524144	358.084583862315	858.718665018496	633.994163332920	291.749582159503	962.722907458032	576.832523637397	351.382333178280	988.854980017307	513.961300184293	351.705341845846	977.306413119477	442.056026792938	345.185097851662	919.025132420743	305.695353183366	304.706296870041	1015.136621625442	216.570213971305	360.758940762057	757.487266418190	391.140688265479	560.629500195382	673.791133766077	296.741891185628	622.433193775823	699.744538672159	198.984941551877	555.220777425565	549.132263866582	42.046654435559	517.660843479869	719.102910473729	95.477614024377	560.338552380025	628.711512422895	35.381739591716	595.462075540734	837.170163973892	42.701888281902	594.835964288462	944.722013671809	39.074205926267	412.946152642943	1013.911117013567	41.723595911743	328.660916187728	1084.151616335967	119.396402387787	342.362138647386	1216.375450737269	90.912358111332	310.359952904326	634.328885798767	1099.196059747277	237.310966531449	607.297987255790	840.783683319543	247.690499554424	1005.051702840589	1117.272360398314	744.204141322868	1256.353134112505	1111.435594249524	690.945164616292	
72	8.776928571429	648.005076201276	995.716060251664	510.417778672915	769.815578970777	1429.291783278784	316.736668826033	904.808737113502	1361.160280570449	452.705723198497	852.553462186754	1427.309273853582	640.133487446866	782.927342033531	1483.816319449013	470.695774176210	884.570916518708	928.841836397759	596.332392449902	838.620709340638	952.320158704835	324.405666617716	873.582222822554	714.443670846872	568.257829662594	768.370495218168	622.679400371569	632.881542313148	820.725228220330	556.834255006023	548.947722193935	797.098001632454	472.000626488599	552.027598543535	917.331020179281	765.544181421172	357.251396450181	860.162311149400	632.178181002373	291.963378950179	964.258258212773	575.229886835357	351.302654163343	989.079392432070	511.236216258952	352.288255008717	976.982867105381	438.912869758351	345.801146791858	916.473708136560	303.332139547262	305.972853737549	1011.079352405182	212.940947494018	362.379960720833	755.556127907415	389.391849892289	559.482812173919	670.479212089593	296.436699955801	621.604491749529	694.561974958406	198.130015103974	554.669788413949	541.978729440587	42.272445092610	517.781730702622	712.088414146303	95.446200917312	560.298414512829	621.602092112296	35.396869909742	595.482098118265	830.106550343373	42.265426210022	594.933344191350	937.075539374214	38.133557331804	415.311681413499	1005.185696440136	39.718052624647	330.007207244377	1078.132102030633	114.613664554317	344.061719049408	1209.198383307350	81.972286933469	309.877533415080	635.859338076611	1097.339089062676	235.308864189647	609.608110452977	838.817717549213	245.885937164564	1006.418164252050	1116.979490691301	742.333227767016	1257.452430783925	1116.300918519954	688.784684277648	
73	8.788857142857	649.926708129527	994.187606315645	508.392404776171	770.731171777440	1427.666529522099	314.763117456302	905.642546759293	1360.201038373159	451.163836358382	852.575982788996	1426.399484465832	638.404257424695	783.325962954869	1482.498455981734	468.720170035383	886.229226043394	927.446818960413	595.224225034024	841.373197201028	950.883824448847	323.178341727475	874.921867020321	712.719526306674	567.438216739782	768.868866225174	621.314718084244	631.454841066423	821.309720118405	555.005125250223	547.821227455013	796.779845761540	469.644355006508	550.592311417598	920.270909894884	764.001216770270	356.522720798344	862.008612479819	630.739843145686	291.905056609372	966.080451261422	573.929488321056	351.224219230504	989.465764861892	508.793091666203	352.829249632729	976.904157602616	436.073619144518	346.219100885662	914.334301835174	301.321944506495	306.672380441723	1007.208980970606	209.623677634635	363.685080968061	753.815128491373	387.646792257440	558.234057246695	667.287510635330	296.260593369846	620.683981464892	689.487785658571	197.388761367578	554.111860220369	534.841173623582	42.730332056118	517.944322722850	705.156822884836	95.446405855630	560.274809246708	614.529468994559	35.510786177916	595.514645133248	823.088268806605	41.796583688292	595.046247937354	929.317943588655	37.453171591729	417.080613814680	996.599736791256	38.036233162469	330.970077928174	1072.147306426087	110.214932346335	345.587832530999	1202.106846133393	73.513769114850	309.659418789761	638.064520815063	1095.238686118616	233.026253618441	612.860805136853	836.592399953418	243.654060024605	1007.158800451031	1116.407820882927	740.613859582367	1257.866789684774	1120.158780362671	686.817779513900	
74	8.800785714286	651.884735056160	992.809586767470	506.291703995561	771.784293515882	1426.135151648917	312.683588097483	906.574914294961	1359.385646087644	449.578876041399	852.641431156731	1425.674870938181	636.614537393210	783.822259996123	1481.351009845066	466.627614319752	887.928440616341	926.167221447669	594.025793734873	844.208185038084	949.681247315047	321.921264590019	876.392953989622	711.122135190851	566.479866768208	769.575066177234	620.023629867889	629.879304294216	822.200518004900	553.279451972472	546.550172515934	796.884014104154	467.232024786695	549.096926100047	923.295603963202	762.724219948798	355.885913274699	864.215663265980	629.768090241486	291.527040083786	968.144208120929	573.001672289286	351.068931885523	990.026342433065	506.757492656820	353.214155401453	977.068749361160	433.663220769752	346.378514978868	912.653956664688	299.769262890317	306.764381284684	1003.607831470738	206.773298688387	364.616610859288	752.328619600131	385.956948012728	556.901673176447	664.264514390073	296.289350483299	619.687742551236	684.575154505964	196.831999602958	553.564723264503	527.741606105587	43.549003205181	518.152403755502	698.355417821894	95.494647001060	560.282764183593	607.506463182318	35.792397374042	595.564940025369	816.118148697909	41.298515075434	595.169784148930	921.700249970651	37.048335519379	418.262215621332	988.411204411402	36.735330766450	331.565606330510	1066.300297668489	106.429621586000	346.867518700591	1195.255970533753	66.030862283299	309.674828424455	640.981757648488	1092.956082827762	230.499004145504	617.053618033771	834.179227883741	241.010873909556	1007.233887257962	1115.589355583076	739.057670163745	1257.599539258066	1122.958482643832	685.055415900412	
75	8.812714285714	653.831143716877	991.678037721596	504.142453581002	772.971770473921	1424.780611083329	310.522342972594	907.606807978489	1358.774335992379	447.959391845317	852.789881885225	1425.215534651507	634.770898067461	784.431896812926	1480.448543867229	464.437237382942	889.621399076065	925.085779443888	592.717768516069	847.046041363601	948.793228385763	320.619902463584	877.975920698800	709.743049775696	565.336934647225	770.550848293331	618.859035584771	628.155706367193	823.474030386332	551.732184675732	545.117889280185	797.543446576136	464.804293029207	547.586820597284	926.319020268959	761.815293476921	355.307779077046	866.715576319041	629.318257947621	290.815625357230	970.373770201516	572.480790539247	350.762735107438	990.746159223726	505.202782817224	353.350110446586	977.422487097309	431.747655710398	346.257167621352	911.366033661378	298.733119312690	306.275992244695	1000.235954953084	204.471606981173	365.164881749355	751.202947952941	384.374499008597	555.520906951473	661.492082767483	296.603086982669	618.637182948659	679.903578899341	196.533654262589	553.049167726389	520.716850210308	44.882209158139	518.403961160956	691.745022032147	95.612019879568	560.339023399717	600.551204143493	36.329199782007	595.635308185183	809.194047403106	40.773815755953	595.297884568509	914.330237318613	36.891979355460	418.918289403208	980.705250153138	35.820183132519	331.837508140812	1060.566175241707	103.390815528131	347.857427383857	1188.660415481450	59.860193758191	309.858733018238	644.638534899224	1090.569113707187	227.764952088204	622.187342721858	831.664883869486	237.979419149955	1006.602682840924	1114.574406128823	737.669856789501	1256.645538270497	1124.649703241936	683.505367354542	
